<?xml version="1.0" encoding="utf-8"?>
<!-- Generator: Adobe Illustrator 21.1.0, SVG Export Plug-In . SVG Version: 6.00 Build 0)  -->
<svg version="1.1" id="Layer_2" xmlns="http://www.w3.org/2000/svg" xmlns:xlink="http://www.w3.org/1999/xlink" x="0px" y="0px"
	 viewBox="0 0 500 406.3" style="enable-background:new 0 0 500 406.3;" xml:space="preserve">
<style type="text/css">
	.st0{fill:#DDA833;}
</style>
<g id="Lozenge">
	<g>
		<path class="st0" d="M494.5,103.4c0,0-4.9-34.4-19.8-49.5c-19-19.9-40.2-20-50-21.1c-69.8-5-174.6-5-174.6-5h-0.2
			c0,0-104.7,0-174.6,5c-9.8,1.2-31,1.3-50,21.1C10.4,69,5.5,103.4,5.5,103.4s-5,40.4-5,80.8V222c0,40.4,5,80.8,5,80.8
			s4.9,34.4,19.8,49.5c19,19.9,43.9,19.2,55,21.3c39.9,3.8,169.6,5,169.6,5s104.8-0.2,174.7-5.2c9.8-1.2,31-1.3,50-21.1
			c15-15.1,19.8-49.5,19.8-49.5s5-40.4,5-80.8v-37.9C499.5,143.8,494.5,103.4,494.5,103.4z M198.5,267.9l0-140.2L333.3,198
			L198.5,267.9z"/>
	</g>
</g>
</svg>
