<?xml version="1.0" encoding="utf-8"?>
<!-- Generator: Adobe Illustrator 21.1.0, SVG Export Plug-In . SVG Version: 6.00 Build 0)  -->
<svg version="1.1" id="faceb" xmlns="http://www.w3.org/2000/svg" xmlns:xlink="http://www.w3.org/1999/xlink" x="0px" y="0px"
	 viewBox="0 0 500 500" style="enable-background:new 0 0 500 500;" width="150" height="150" xml:space="preserve">
<style type="text/css">
	.st0{fill:#DDA833;}
</style>
<title>icon_facebook_1</title>
<path id="White" class="st0" d="M472.4,0H27.6C12.4,0,0,12.3,0,27.6c0,0,0,0,0,0v444.8C0,487.6,12.4,500,27.6,500c0,0,0,0,0,0h239.5
	V306.4h-65.2v-75.5h65.2v-55.6c0-64.6,39.4-99.7,97.1-99.7c27.6,0,51.3,2.1,58.2,3V146l-40,0c-31.3,0-37.4,14.9-37.4,36.7v48.2h74.7
	l-9.7,75.5h-65V500h127.4c15.2,0,27.6-12.4,27.6-27.6l0,0V27.6C500,12.4,487.6,0,472.4,0C472.4,0,472.4,0,472.4,0z"/>
</svg>
