<?xml version="1.0" encoding="utf-8"?>
<!-- Generator: Adobe Illustrator 21.1.0, SVG Export Plug-In . SVG Version: 6.00 Build 0)  -->
<svg version="1.1" id="twitter" xmlns="http://www.w3.org/2000/svg" xmlns:xlink="http://www.w3.org/1999/xlink" x="0px" y="0px"
	 viewBox="0 0 500 406.3" style="enable-background:new 0 0 500 406.3;" xml:space="preserve" width="150" height="150">
<style type="text/css">
	.st0{fill:#DDA833;}
</style>
<title>icon_twitter_1</title>
<path class="st0" d="M500,48.1c-18.7,8.3-38.6,13.7-58.9,16.2c21.4-12.8,37.5-33,45.1-56.8C466,19.5,444,27.9,421,32.4
	C382.2-8.9,317.2-10.9,275.9,28C249.3,53,238,90.3,246.2,126C163.8,121.8,86.9,82.9,34.8,18.8c-27.2,46.9-13.3,106.8,31.7,137
	c-16.3-0.5-32.2-4.9-46.5-12.8c0,0.4,0,0.9,0,1.3c0,48.8,34.4,90.9,82.3,100.6c-15.1,4.1-31,4.7-46.3,1.8
	c13.4,41.8,51.9,70.4,95.8,71.2c-36.3,28.5-81.2,44-127.4,43.9c-8.2,0-16.3-0.5-24.5-1.4c46.9,30.1,101.5,46.1,157.2,46.1
	c188.7,0,291.9-156.3,291.9-291.9c0-4.4-0.1-8.9-0.3-13.3C468.9,86.7,486.2,68.7,500,48.1z"/>
</svg>
