<?xml version="1.0" encoding="utf-8"?>
<!-- Generator: Adobe Illustrator 21.1.0, SVG Export Plug-In . SVG Version: 6.00 Build 0)  -->
<svg version="1.1" id="Layer_2" xmlns="http://www.w3.org/2000/svg" xmlns:xlink="http://www.w3.org/1999/xlink" x="0px" y="0px"
	 width="150px" height="150px" viewBox="0 0 150 150" style="enable-background:new 0 0 150 150;" xml:space="preserve">
<style type="text/css">
	.st0{fill:#DDA833;}
</style>
<path class="st0" d="M104.2,102.7c-4.8,0-9.5,1.8-13.1,4.2L66.7,85.4c1.2-3,2.4-6.6,2.4-10.1s-0.6-6.6-2.4-10.1l25-21.5
	c3.6,2.4,8.3,4.2,13.1,4.2c13.1,0,23.8-10.7,23.8-23.8S117.9,0.2,104.8,0.2S81,10.9,81,24c0,3.6,0.6,6.6,1.8,9.5l-25,22.1
	c-3.6-2.4-7.7-4.2-12.5-4.2c-13.1,0-23.8,10.7-23.8,23.8s10.7,23.8,23.8,23.8c4.8,0,8.9-1.2,12.5-3.6l25,22.1
	C81.6,120,81,123,81,126c0,13.1,10.7,23.8,23.8,23.8s23.8-10.7,23.8-23.8S117.3,102.7,104.2,102.7z"/>
</svg>
