<?xml version="1.0" encoding="utf-8"?>
<!-- Generator: Adobe Illustrator 21.1.0, SVG Export Plug-In . SVG Version: 6.00 Build 0)  -->
<svg version="1.1" id="Layer_2" xmlns="http://www.w3.org/2000/svg" xmlns:xlink="http://www.w3.org/1999/xlink" x="0px" y="0px"
	 width="167.1px" height="132.7px" viewBox="0 0 167.1 132.7" style="enable-background:new 0 0 167.1 132.7;" xml:space="preserve"
	>
<style type="text/css">
	.st0{fill:#DDA833;}
</style>
<path class="st0" d="M166.7,58h-38.9L92.1,84.3l8.4-26.2H38.2c2.7-2.8,6.7-4.5,13.5-5.7l28.5-5c11.4-2,27.8-7.7,32.3-21.9
	C119.2,4.6,97.7,0.3,73.2,0.3c-19,0-44.6,3.4-55.1,29.1h32.2c4-9.7,12.4-10.4,20.6-10.4c7,0,11.7,1.7,10.3,6c-1,3.1-3.7,5-7.6,5.8
	l-23.5,4.7C31,39.4,10.1,48,0.4,76.7h64.8l-17.8,55.7h29.4l6.4-20l12.4-8.6l11.2,28.5h39l-21.4-45.6L166.7,58z"/>
</svg>
