<?xml version="1.0" encoding="utf-8"?>
<!-- Generator: Adobe Illustrator 21.1.0, SVG Export Plug-In . SVG Version: 6.00 Build 0)  -->
<svg version="1.1" id="Layer_2" xmlns="http://www.w3.org/2000/svg" xmlns:xlink="http://www.w3.org/1999/xlink" x="0px" y="0px"
	 viewBox="0 0 500 500" style="enable-background:new 0 0 500 500;" xml:space="preserve" width="150" height="150">
<style type="text/css">
	.st0{fill:#DDA833;}
</style>
<g>
	<g>
		<path class="st0" d="M430.2,0.5H69.8c-38.3,0-69.3,31-69.3,69.3v360.4c0,38.3,31,69.3,69.3,69.3h360.4c38.3,0,69.3-31,69.3-69.3
			V69.8C499.5,31.5,468.5,0.5,430.2,0.5z M250,153c53.6,0,97,43.4,97,97s-43.4,97-97,97s-97-43.4-97-97S196.4,153,250,153z
			 M444.1,430.2c0,7.7-6.2,13.9-13.9,13.9H69.8c-7.7,0-13.9-6.2-13.9-13.9V208.4h47.3c-3.7,13.2-5.7,27.2-5.7,41.6
			c0,84.2,68.3,152.5,152.5,152.5S402.5,334.2,402.5,250c0-14.4-2-28.4-5.7-41.6h47.3V430.2z M444.1,139.1c0,7.7-6.2,13.9-13.9,13.9
			h-69.3c-7.7,0-13.9-6.2-13.9-13.9V69.8c0-7.7,6.2-13.9,13.9-13.9h69.3c7.7,0,13.9,6.2,13.9,13.9V139.1z"/>
	</g>
</g>
</svg>
